<svg width="25" height="35" viewBox="0 0 25 35" fill="none" xmlns="http://www.w3.org/2000/svg">
<path d="M11 32.0116C11.0065 33.1162 11.9071 34.0064 13.0116 34C14.1162 33.9935 15.0064 33.0929 15 31.9884L11 32.0116ZM15 31.9884L14.9098 16.4884L10.9099 16.5116L11 32.0116L15 31.9884ZM14.9098 16.4884L14.8196 0.988365L10.8197 1.01164L10.9099 16.5116L14.9098 16.4884Z" fill="black"/>
<path d="M11.5847 34.4131C12.3651 35.1948 13.6315 35.1958 14.4131 34.4153C15.1948 33.6349 15.1958 32.3685 14.4153 31.5869L11.5847 34.4131ZM14.4153 31.5869L3.41532 20.5699L0.584714 23.3961L11.5847 34.4131L14.4153 31.5869Z" fill="black"/>
<path d="M11.568 31.6038C10.7969 32.3947 10.8129 33.6609 11.6038 34.432C12.3947 35.2031 13.6609 35.1871 14.432 34.3962L11.568 31.6038ZM14.432 34.3962L24.6457 23.9202L21.7816 21.1278L11.568 31.6038L14.432 34.3962Z" fill="black"/>
</svg>
