<svg width="348" height="404" viewBox="0 0 348 404" fill="none" xmlns="http://www.w3.org/2000/svg">
<g clip-path="url(#clip0_109_107)">
<rect width="348" height="404" fill="white"/>
<path d="M-2 173.505L40.5459 107.806L69.5545 133.672L103.881 24L143.043 65.9029L170.601 142.466L193.808 133.672L226.201 244.896L232.969 325.08L291.953 353.533L427 485" stroke="#FD6500" stroke-width="8"/>
<path d="M269.344 245.446C263.308 271.337 264.166 285.449 275.444 309.696" stroke="#FD6500" stroke-width="6" stroke-linecap="round"/>
<path d="M284.854 258.896C279.164 284.864 280.211 298.964 291.811 323.058" stroke="#FD6500" stroke-width="6" stroke-linecap="round"/>
<path d="M259.824 169.093C245.959 147.201 237.349 140.025 220.41 136.474" stroke="#FD6500" stroke-width="6" stroke-linecap="round"/>
<path d="M275.651 309.59L256.643 321.674" stroke="#FD6500" stroke-width="6" stroke-linecap="round"/>
<path d="M291.221 324.074L278.369 342.57" stroke="#FD6500" stroke-width="6" stroke-linecap="round"/>
<circle cx="255.791" cy="272.527" r="4.0589" transform="rotate(26.9845 255.791 272.527)" fill="#FD6500" stroke="#FD6500" stroke-width="6"/>
<circle cx="274.413" cy="269.424" r="4.0589" transform="rotate(26.9845 274.413 269.424)" fill="#FD6500" stroke="#FD6500" stroke-width="6"/>
<circle cx="301.312" cy="251.836" r="4.0589" transform="rotate(26.9845 301.312 251.836)" fill="#FD6500" stroke="#FD6500" stroke-width="6"/>
<circle cx="288.897" cy="260.112" r="4.0589" transform="rotate(26.9845 288.897 260.112)" fill="#FD6500" stroke="#FD6500" stroke-width="6"/>
<circle cx="309.588" cy="238.386" r="4.0589" transform="rotate(26.9845 309.588 238.386)" fill="#FD6500" stroke="#FD6500" stroke-width="6"/>
<path d="M14.0359 272.862L42.4866 254.24L81.8003 272.862L105.078 319.418" stroke="#FD6500" stroke-width="8"/>
<path d="M156 354.693L176.691 319L224.799 409.008" stroke="#FD6500" stroke-width="6"/>
<circle cx="255.327" cy="216.197" r="49.1014" transform="rotate(26.9845 255.327 216.197)" fill="white" stroke="#FD6500" stroke-width="6"/>
<path d="M237.272 253.395C217.94 270.651 207.694 275.194 190.43 273.969" stroke="#FD6500" stroke-width="6" stroke-linecap="round"/>
<path d="M215.469 197.433C206.555 193.295 205.638 189.483 206.222 181.871" stroke="#FD6500" stroke-width="4" stroke-linecap="round"/>
<path d="M220.013 194.372C212.112 188.528 211.98 184.609 214.081 177.27" stroke="#FD6500" stroke-width="4" stroke-linecap="round"/>
<path d="M225.932 197.619C219.645 190.065 220.447 186.227 224.231 179.597" stroke="#FD6500" stroke-width="4" stroke-linecap="round"/>
<path d="M228.708 208.33C228.668 212.119 227.721 215.443 226.327 217.746C224.905 220.094 223.253 221.063 221.833 221.048C220.414 221.033 218.782 220.029 217.411 217.652C216.066 215.319 215.19 211.976 215.23 208.187C215.27 204.398 216.217 201.075 217.612 198.771C219.033 196.423 220.685 195.454 222.105 195.469C223.525 195.484 225.156 196.488 226.527 198.866C227.872 201.199 228.749 204.541 228.708 208.33Z" stroke="#FD6500" stroke-width="4"/>
<ellipse cx="219.017" cy="208.042" rx="4.70593" ry="8.06731" transform="rotate(0.60844 219.017 208.042)" fill="#FD6500"/>
<path d="M250.348 202.718C250.251 206.506 249.253 209.814 247.824 212.096C246.368 214.423 244.701 215.367 243.282 215.33C241.862 215.293 240.246 214.265 238.911 211.867C237.602 209.514 236.776 206.159 236.873 202.371C236.971 198.583 237.968 195.274 239.397 192.992C240.854 190.666 242.52 189.722 243.94 189.758C245.359 189.795 246.975 190.823 248.31 193.221C249.62 195.574 250.445 198.929 250.348 202.718Z" stroke="#FD6500" stroke-width="4"/>
<path d="M239.013 190.083C231.556 183.682 231.707 179.764 234.334 172.597" stroke="#FD6500" stroke-width="4" stroke-linecap="round"/>
<path d="M244.217 188.37C238.198 180.602 239.133 176.794 243.147 170.3" stroke="#FD6500" stroke-width="4" stroke-linecap="round"/>
<path d="M249.032 193.101C245.031 184.125 246.844 180.648 252.285 175.294" stroke="#FD6500" stroke-width="4" stroke-linecap="round"/>
<ellipse cx="241.898" cy="202.938" rx="4.70593" ry="8.06731" transform="rotate(1.47395 241.898 202.938)" fill="#FD6500"/>
<path d="M221.89 231.886C232.037 223.301 238.236 227.387 248.907 231.369C259.578 235.351 249.858 236.556 248.907 239.646C245.818 249.686 224.979 250.203 221.89 240.163C220.939 237.074 221.89 231.886 221.89 231.886Z" fill="#FD6500"/>
</g>
<defs>
<clipPath id="clip0_109_107">
<rect width="348" height="404" fill="white"/>
</clipPath>
</defs>
</svg>
