<svg width="348" height="404" viewBox="0 0 348 404" fill="none" xmlns="http://www.w3.org/2000/svg">
<g clip-path="url(#clip0_108_2)">
<rect width="348" height="404" fill="white"/>
<path d="M60.5868 404.45C60.5868 333.192 115.057 275.427 182.25 275.427C249.442 275.427 303.913 333.192 303.913 404.45" stroke="#FD6500" stroke-width="10"/>
<path d="M237.974 346.508C250.174 331.294 248.444 323.707 240.695 310.69" stroke="#FD6500" stroke-width="7" stroke-linecap="round"/>
<path d="M227.195 345.073C236.09 327.718 232.872 320.634 222.666 309.438" stroke="#FD6500" stroke-width="7" stroke-linecap="round"/>
<path d="M219.536 356.063C224.054 337.092 219.245 330.975 206.672 322.524" stroke="#FD6500" stroke-width="7" stroke-linecap="round"/>
<path d="M223.624 377.768C227.068 384.53 231.734 389.673 236.326 392.591C240.995 395.558 244.972 395.906 247.69 394.522C250.408 393.138 252.466 389.718 252.813 384.197C253.154 378.766 251.74 371.968 248.297 365.205C244.853 358.442 240.187 353.3 235.595 350.381C230.926 347.414 226.949 347.066 224.231 348.45C221.513 349.834 219.455 353.255 219.108 358.776C218.767 364.206 220.181 371.005 223.624 377.768Z" stroke="#FD6500" stroke-width="7"/>
<ellipse cx="9.33873" cy="16.0093" rx="9.33873" ry="16.0093" transform="matrix(-0.891129 0.453749 0.453749 0.891129 233.152 341.669)" fill="#FD6500"/>
<path d="M152.606 385.257C156.049 392.019 160.716 397.162 165.308 400.08C169.977 403.047 173.953 403.395 176.672 402.011C179.39 400.627 181.448 397.207 181.794 391.686C182.136 386.255 180.722 379.457 177.278 372.694C173.835 365.931 169.168 360.789 164.576 357.87C159.907 354.903 155.931 354.555 153.213 355.939C150.494 357.323 148.437 360.744 148.09 366.265C147.749 371.695 149.162 378.494 152.606 385.257Z" stroke="#FD6500" stroke-width="7"/>
<path d="M162.527 352.728C170.412 334.891 166.792 328.003 155.961 317.411" stroke="#FD6500" stroke-width="7" stroke-linecap="round"/>
<path d="M151.742 354.108C155.883 335.051 150.953 329.031 138.215 320.831" stroke="#FD6500" stroke-width="7" stroke-linecap="round"/>
<path d="M147.161 366.696C146.657 347.201 140.438 342.523 126.117 337.584" stroke="#FD6500" stroke-width="7" stroke-linecap="round"/>
<ellipse cx="9.33873" cy="16.0093" rx="9.33873" ry="16.0093" transform="matrix(-0.891129 0.453749 0.453749 0.891129 162.805 351.958)" fill="#FD6500"/>
<path d="M132.973 316.527C150.024 291.352 215.671 248.674 228.176 255.067C240.682 261.459 284.816 274.951 269.15 270.733C253.484 266.515 202.21 322.364 169.729 327.373C169.729 327.373 142.243 329.614 132.973 316.527Z" fill="white"/>
<path d="M129.259 319.723C182.504 266.55 206.066 255.441 231.151 255.511C201.087 224.038 203.48 185.638 115.33 208.78C57.4117 235.458 58.7415 267.429 82.4966 335.219L129.259 319.723Z" fill="#FD6500" stroke="#FD6500" stroke-width="6"/>
<path d="M119.277 208.164C154.137 216.746 169.285 230.09 189.797 266.447" stroke="white" stroke-width="6"/>
<path d="M108.261 212.506C97.959 229.213 100.88 250.283 128.846 318.476" stroke="white" stroke-width="6"/>
<path d="M283.256 272.842L284.217 270C285.708 270.505 286.556 272.076 286.159 273.599C285.762 275.123 284.254 276.08 282.707 275.792L283.256 272.842ZM183.463 324.595L184.963 327.193L184.759 327.312L184.538 327.396L183.463 324.595ZM233.565 252.879L284.217 270L282.295 275.684L231.644 258.563L233.565 252.879ZM282.707 275.792C272.979 273.979 265.525 274.364 258.992 276.293C252.423 278.232 246.557 281.798 240.068 286.717C227.188 296.48 211.886 311.647 184.963 327.193L181.963 321.997C208.476 306.688 222.881 292.216 236.443 281.936C243.176 276.833 249.715 272.776 257.293 270.538C264.907 268.29 273.343 267.944 283.806 269.893L282.707 275.792ZM184.538 327.396C171.736 332.308 162.577 333.188 154.155 331.539C145.968 329.936 138.622 325.921 129.858 321.82L132.401 316.386C141.68 320.727 148.06 324.232 155.308 325.651C162.322 327.024 170.308 326.43 182.389 321.794L184.538 327.396Z" fill="#FD6500"/>
<ellipse cx="5.91159" cy="4.5979" rx="5.91159" ry="4.5979" transform="matrix(-0.949237 0.314561 0.314561 0.949237 115.554 199.018)" fill="#FD6500"/>
<path d="M230.548 187.178C248.425 189.877 273.923 196.598 272.399 214.614C271.137 229.531 255.142 224.794 240.701 228.738C220.966 234.13 189.326 218.495 189.326 218.495L154.57 218.648C154.57 218.648 198.792 182.385 230.548 187.178Z" fill="white"/>
<path d="M73.9934 149.122L143.036 192.887L183.052 199.922L144.82 221.731C144.82 221.731 111.969 223.734 93.4195 215.709C58.0025 200.387 63.2791 149.204 73.9934 149.122Z" fill="white"/>
<path d="M193.033 128.633C188.395 152.203 191.689 162.259 211.787 172.564" stroke="#FD6500" stroke-width="6"/>
<path d="M152.779 123.729C156.187 130.666 175.467 116.973 190.739 121.22C226.225 131.089 220.72 176.984 219.769 187.366" stroke="#FD6500" stroke-width="6"/>
<path d="M188.917 199.111C112.374 197.664 85.9593 148.216 72.9067 149.909C59.854 151.602 60.3052 198.763 91.8783 215.677C123.451 232.59 239.124 208.886 240.672 218.344" stroke="#FD6500" stroke-width="6"/>
<path d="M146.034 221.059C168.24 215.187 236.417 155.885 273.519 208.122C274.805 245.259 189.459 221.522 189.459 221.522" stroke="#FD6500" stroke-width="6"/>
<path d="M172.643 207.167C134.862 200.283 118.283 195.795 107.612 185.209C111.285 187.347 138.094 119.638 147.216 115.89C157.05 111.851 172.317 121.21 170.749 120.016" stroke="#FD6500" stroke-width="6"/>
<path d="M126.454 29.1436L107.376 141.731C151.194 144.354 173.773 134.357 212.266 108.029L126.454 29.1436Z" fill="white" stroke="#FD6500" stroke-width="6"/>
<path d="M122.304 11.4805L124.207 14.7089L125.313 16.5867L127.441 16.1145L131.1 15.3027L128.617 18.1097L127.173 19.7425L128.28 21.6203L130.182 24.8487L126.746 23.3551L124.747 22.4864L123.303 24.1191L120.82 26.9262L121.179 23.1961L121.387 21.0264L119.388 20.1577L115.951 18.6642L119.61 17.8524L121.737 17.3802L121.946 15.2106L122.304 11.4805Z" stroke="#FD6500" stroke-width="6"/>
<circle cx="122.915" cy="88.4271" r="5.35977" transform="rotate(-3.49518 122.915 88.4271)" fill="#FD6500"/>
<circle cx="137.603" cy="65.156" r="5.35977" transform="rotate(-3.49518 137.603 65.156)" fill="#FD6500"/>
<circle cx="143.988" cy="81.7702" r="5.35977" transform="rotate(-3.49518 143.988 81.7702)" fill="#FD6500"/>
<circle cx="156.327" cy="64.0124" r="5.35977" transform="rotate(-3.49518 156.327 64.0124)" fill="#FD6500"/>
<circle cx="168.77" cy="91.891" r="5.35977" transform="rotate(-3.49518 168.77 91.891)" fill="#FD6500"/>
<circle cx="134.704" cy="105.606" r="5.35977" transform="rotate(-3.49518 134.704 105.606)" fill="#FD6500"/>
<circle cx="124.793" cy="60.5686" r="5.35977" transform="rotate(-3.49518 124.793 60.5686)" fill="#FD6500"/>
<circle cx="136.35" cy="44.6482" r="5.35977" transform="rotate(-3.49518 136.35 44.6482)" fill="#FD6500"/>
<circle cx="158.778" cy="104.136" r="5.35977" transform="rotate(-3.49518 158.778 104.136)" fill="#FD6500"/>
<circle cx="150.895" cy="123.682" r="5.35977" transform="rotate(-3.49518 150.895 123.682)" fill="#FD6500"/>
<circle cx="173.008" cy="110.188" r="5.35977" transform="rotate(-3.49518 173.008 110.188)" fill="#FD6500"/>
<circle cx="173.423" cy="124.586" r="5.35977" transform="rotate(-3.49518 173.423 124.586)" fill="#FD6500"/>
<circle cx="195.536" cy="111.092" r="5.35977" transform="rotate(-3.49518 195.536 111.092)" fill="#FD6500"/>
<circle cx="126.326" cy="136.583" r="5.35977" transform="rotate(-3.49518 126.326 136.583)" fill="#FD6500"/>
<circle cx="189.658" cy="96.8799" r="5.35977" transform="rotate(-3.49518 189.658 96.8799)" fill="#FD6500"/>
<circle cx="115.067" cy="121.125" r="5.35977" transform="rotate(-3.49518 115.067 121.125)" fill="#FD6500"/>
<circle cx="130.171" cy="119.307" r="5.35977" transform="rotate(-3.49518 130.171 119.307)" fill="#FD6500"/>
</g>
<defs>
<clipPath id="clip0_108_2">
<rect width="348" height="404" fill="white"/>
</clipPath>
</defs>
</svg>
