<svg width="527" height="272" viewBox="0 0 527 210" fill="none" xmlns="http://www.w3.org/2000/svg">
<path d="M8.40851 272.539C8.40851 131.792 122.507 17.6939 263.254 17.6939C404.001 17.6939 518.099 131.792 518.099 272.539" stroke="#FD6500" stroke-width="16"/>
<path d="M203.843 165.669C203.843 184.466 208.362 201.095 215.251 212.753C222.246 224.59 230.761 230.012 238.591 230.012C246.421 230.012 254.936 224.59 261.931 212.753C268.82 201.095 273.339 184.466 273.339 165.669C273.339 146.871 268.82 130.243 261.931 118.584C254.936 106.747 246.421 101.325 238.591 101.325C230.761 101.325 222.246 106.747 215.251 118.584C208.362 130.243 203.843 146.871 203.843 165.669Z" stroke="#FD6500" stroke-width="16"/>
<path d="M382.75 113.055C426.563 93.2812 431.248 74.6828 428.787 37.4238" stroke="#FD6500" stroke-width="16" stroke-linecap="round"/>
<path d="M360.68 97.8492C399.628 69.6769 400.482 50.5165 390.585 14.5115" stroke="#FD6500" stroke-width="16" stroke-linecap="round"/>
<path d="M331.565 113.422C362.707 76.8046 358.985 57.9899 340.82 25.3658" stroke="#FD6500" stroke-width="16" stroke-linecap="round"/>
<path d="M262.643 105.317C299.91 74.9567 299.663 55.779 287.719 20.4009" stroke="#FD6500" stroke-width="16" stroke-linecap="round"/>
<path d="M237.409 96.2862C267.819 59.0588 263.724 40.3216 244.916 8.06415" stroke="#FD6500" stroke-width="16" stroke-linecap="round"/>
<path d="M213.268 118.811C233.965 75.4266 225.538 58.1981 199.606 31.3311" stroke="#FD6500" stroke-width="16" stroke-linecap="round"/>
<path d="M315.646 165.669C315.646 184.466 320.165 201.095 327.054 212.753C334.049 224.59 342.564 230.012 350.394 230.012C358.224 230.012 366.739 224.59 373.734 212.753C380.623 201.095 385.142 184.466 385.142 165.669C385.142 146.871 380.623 130.243 373.734 118.584C366.739 106.747 358.224 101.325 350.394 101.325C342.564 101.325 334.049 106.747 327.054 118.584C320.165 130.243 315.646 146.871 315.646 165.669Z" stroke="#FD6500" stroke-width="16"/>
<path d="M338.664 145.939C338.664 155.673 340.983 164.095 344.317 169.81C347.765 175.721 351.353 177.398 353.683 177.398C356.012 177.398 359.601 175.721 363.049 169.81C366.382 164.095 368.701 155.673 368.701 145.939C368.701 136.204 366.382 127.782 363.049 122.067C359.601 116.156 356.012 114.479 353.683 114.479C351.353 114.479 347.765 116.156 344.317 122.067C340.983 127.782 338.664 136.204 338.664 145.939Z" fill="#FD6500" stroke="#FD6500" stroke-width="16"/>
<path d="M226.861 145.939C226.861 155.673 229.18 164.095 232.514 169.81C235.962 175.721 239.55 177.398 241.88 177.398C244.209 177.398 247.798 175.721 251.246 169.81C254.579 164.095 256.898 155.673 256.898 145.939C256.898 136.204 254.579 127.782 251.246 122.067C247.798 116.156 244.209 114.479 241.88 114.479C239.55 114.479 235.962 116.156 232.514 122.067C229.18 127.782 226.861 136.204 226.861 145.939Z" fill="#FD6500" stroke="#FD6500" stroke-width="16"/>
</svg>
