<svg width="348" height="404" viewBox="0 0 348 404" fill="none" xmlns="http://www.w3.org/2000/svg">
<g clip-path="url(#clip0_74_4)">
<rect width="348" height="404" fill="white"/>
<circle cx="177.877" cy="160.562" r="95.8487" transform="rotate(19.6198 177.877 160.562)" stroke="#FD6500" stroke-width="8"/>
<path d="M213.518 128.814C211.063 135.701 207.242 141.184 203.224 144.532C199.136 147.938 195.415 148.736 192.696 147.767C189.978 146.798 187.601 143.826 186.589 138.602C185.595 133.468 186.104 126.804 188.559 119.917C191.014 113.03 194.835 107.547 198.853 104.199C202.941 100.793 206.662 99.9948 209.38 100.964C212.099 101.933 214.476 104.906 215.488 110.129C216.482 115.263 215.973 121.928 213.518 128.814Z" stroke="#FD6500" stroke-width="7"/>
<path d="M117.748 177.678C151.964 214.297 216.771 195.34 227.928 164.042" stroke="#FD6500" stroke-width="8" stroke-linecap="round"/>
<path d="M224.973 149.311C223.409 160.267 226.704 166.878 240.85 179.591" stroke="#FD6500" stroke-width="8" stroke-linecap="round"/>
<path d="M154.757 85.9832C141.189 72.9215 141.907 65.4414 147.717 52.0146" stroke="#FD6500" stroke-width="7" stroke-linecap="round"/>
<path d="M164.903 83.2747C154.235 67.7536 156.441 60.5702 164.83 48.5843" stroke="#FD6500" stroke-width="7" stroke-linecap="round"/>
<path d="M173.599 92.852C166.923 75.2414 170.772 68.7874 181.768 59.137" stroke="#FD6500" stroke-width="7" stroke-linecap="round"/>
<path d="M200.102 98.9282C190.342 82.8209 192.956 75.7758 202.019 64.2908" stroke="#FD6500" stroke-width="7" stroke-linecap="round"/>
<path d="M210.602 98.9152C204.277 81.1756 208.253 74.7993 219.438 65.3689" stroke="#FD6500" stroke-width="7" stroke-linecap="round"/>
<path d="M216.548 110.404C214.618 91.6699 219.994 86.4204 233.099 79.9165" stroke="#FD6500" stroke-width="7" stroke-linecap="round"/>
<path d="M172.256 114.106C169.801 120.992 165.98 126.476 161.962 129.823C157.874 133.229 154.153 134.028 151.435 133.059C148.716 132.09 146.339 129.117 145.327 123.894C144.333 118.759 144.842 112.095 147.297 105.208C149.752 98.3217 153.573 92.838 157.591 89.4904C161.679 86.0847 165.4 85.2861 168.119 86.2551C170.837 87.2242 173.214 90.1968 174.226 95.4202C175.22 100.554 174.711 107.219 172.256 114.106Z" stroke="#FD6500" stroke-width="7"/>
<ellipse cx="160.129" cy="112.076" rx="9.01859" ry="15.4604" transform="rotate(19.6198 160.129 112.076)" fill="#FD6500"/>
<ellipse cx="201.755" cy="126.154" rx="9.01859" ry="15.4604" transform="rotate(19.6198 201.755 126.154)" fill="#FD6500"/>
<path d="M119.514 243.708C88.0306 283.764 78.072 308.964 77.9838 360.211" stroke="#FD6500" stroke-width="8" stroke-linecap="round"/>
<path d="M188.637 258.037C205.83 305.995 207.305 333.051 191.176 381.694" stroke="#FD6500" stroke-width="8" stroke-linecap="round"/>
<path d="M82.9294 150.652C67.5926 197.884 55.0179 215.298 25.2574 229.941" stroke="#FD6500" stroke-width="8" stroke-linecap="round"/>
<path d="M271.387 180.136C305.872 144.402 315.334 125.119 314.274 91.9683" stroke="#FD6500" stroke-width="8" stroke-linecap="round"/>
<path d="M77.9837 360.211L37.5454 345.112" stroke="#FD6500" stroke-width="8" stroke-linecap="round"/>
<path d="M233.131 385.343L189.967 385.585" stroke="#FD6500" stroke-width="8" stroke-linecap="round"/>
<path d="M135.905 190.053C136.986 187.019 156.83 183.151 159.258 184.016C161.685 184.881 165.98 193.935 165.98 193.935C165.98 193.935 171.775 182.322 178.02 183.182C183.492 183.934 187.17 193.966 187.17 193.966" stroke="#FD6500" stroke-width="8" stroke-linecap="round"/>
<circle cx="95.2424" cy="235.056" r="9.52789" transform="rotate(19.6198 95.2424 235.056)" fill="#FD6500" stroke="#FD6500" stroke-width="8"/>
<circle cx="116.053" cy="253.417" r="9.52789" transform="rotate(19.6198 116.053 253.417)" fill="#FD6500" stroke="#FD6500" stroke-width="8"/>
<circle cx="145.179" cy="263.8" r="9.52789" transform="rotate(19.6198 145.179 263.8)" fill="#FD6500" stroke="#FD6500" stroke-width="8"/>
<circle cx="177.248" cy="269.76" r="9.52789" transform="rotate(19.6198 177.248 269.76)" fill="#FD6500" stroke="#FD6500" stroke-width="8"/>
<circle cx="208.705" cy="265.929" r="9.52789" transform="rotate(19.6198 208.705 265.929)" fill="#FD6500" stroke="#FD6500" stroke-width="8"/>
</g>
<defs>
<clipPath id="clip0_74_4">
<rect width="348" height="404" fill="white"/>
</clipPath>
</defs>
</svg>
