<svg width="348" height="404" viewBox="0 0 348 404" fill="none" xmlns="http://www.w3.org/2000/svg">
<g clip-path="url(#clip0_109_147)">
<rect width="348" height="404" transform="matrix(-1 0 0 1 348 0)" fill="white"/>
<path d="M35.8445 343.659C35.8445 414.64 93.121 472.151 163.737 472.151C234.353 472.151 291.629 414.64 291.629 343.659C291.629 272.678 234.353 215.167 163.737 215.167C93.121 215.167 35.8445 272.678 35.8445 343.659Z" stroke="#FD6500" stroke-width="8"/>
<path d="M130.164 293.899C130.164 272.709 140.095 255.531 152.346 255.531C164.597 255.531 174.528 272.709 174.528 293.899" stroke="#FD6500" stroke-width="8"/>
<path d="M241.441 326.732C190.532 369.203 108.558 333.711 99.0345 290.799" stroke="#FD6500" stroke-width="8" stroke-linecap="round"/>
<path d="M241.574 327.33C202.516 448.359 109.365 335.78 99.8409 292.867" stroke="#FD6500" stroke-width="8" stroke-linecap="round"/>
<path d="M226.574 261.327C249.283 251.078 251.711 241.438 250.435 222.126" stroke="#FD6500" stroke-width="8" stroke-linecap="round"/>
<path d="M215.135 253.446C235.322 238.844 235.764 228.912 230.635 210.25" stroke="#FD6500" stroke-width="8" stroke-linecap="round"/>
<path d="M200.044 261.517C216.185 242.538 214.256 232.786 204.841 215.877" stroke="#FD6500" stroke-width="8" stroke-linecap="round"/>
<path d="M164.32 257.316C183.636 241.58 183.508 231.64 177.317 213.303" stroke="#FD6500" stroke-width="8" stroke-linecap="round"/>
<path d="M151.241 252.636C167.003 233.34 164.88 223.628 155.132 206.909" stroke="#FD6500" stroke-width="8" stroke-linecap="round"/>
<path d="M138.728 262.848C149.456 240.361 145.087 231.431 131.647 217.506" stroke="#FD6500" stroke-width="8" stroke-linecap="round"/>
<path d="M191.314 292.7C191.314 271.51 201.246 254.332 213.496 254.332C225.747 254.332 235.678 271.51 235.678 292.7" stroke="#FD6500" stroke-width="8"/>
<path d="M294.194 323.46C329.823 238.059 291.16 171.197 222.994 167.634" stroke="#FD6500" stroke-width="8" stroke-linecap="round"/>
<path d="M63.7596 324.781C28.1311 239.38 66.7935 172.518 134.96 168.954" stroke="#FD6500" stroke-width="8" stroke-linecap="round"/>
<path d="M236.878 18.1242C269.251 1.33783 278.244 43.3037 226.686 71.4806M123.57 18.3699C91.1966 1.58358 82.2039 43.5494 133.762 71.7264M190.116 108.65C188.058 121.855 188.509 131.288 193.713 142.822M169.789 109.25C171.846 122.455 171.395 131.888 166.192 143.422M191.914 31.3134V51.6968M191.914 51.6968V72.6797M191.914 51.6968H170.931M191.914 51.6968H192.514M168.533 31.3134V72.6797M236.877 4.33545H124.169C124.169 4.33545 119.373 109.25 179.324 109.25C239.275 109.25 236.877 4.33545 236.877 4.33545ZM222.489 158.41H137.359V182.39H222.489V158.41ZM211.698 141.623H148.15V158.41H211.698V141.623Z" stroke="#FD6500" stroke-width="6"/>
</g>
<defs>
<clipPath id="clip0_109_147">
<rect width="348" height="404" fill="white" transform="matrix(-1 0 0 1 348 0)"/>
</clipPath>
</defs>
</svg>
